<svg version="1.1" viewBox="0.0 0.0 962.5800524934383 527.7427821522309" fill="none" stroke="none" stroke-linecap="square" stroke-miterlimit="10" xmlns:xlink="http://www.w3.org/1999/xlink" xmlns="http://www.w3.org/2000/svg"><clipPath id="p.0"><path d="m0 0l962.5801 0l0 527.7428l-962.5801 0l0 -527.7428z" clip-rule="nonzero"/></clipPath><g clip-path="url(#p.0)"><path fill="#000000" fill-opacity="0.0" d="m0 0l962.5801 0l0 527.7428l-962.5801 0z" fill-rule="evenodd"/><path fill="#ffffff" d="m203.87665 252.91077l0 0c0 -102.620605 123.62579 -185.81104 276.12598 -185.81104l0 0c152.50018 0 276.12598 83.19042 276.12598 185.81104l0 0c0 102.620575 -123.62579 185.811 -276.12598 185.811l0 0c-152.50018 0 -276.12598 -83.19043 -276.12598 -185.811z" fill-rule="evenodd"/><path stroke="#000000" stroke-width="4.0" stroke-linejoin="round" stroke-linecap="butt" d="m203.87665 252.91077l0 0c0 -102.620605 123.62579 -185.81104 276.12598 -185.81104l0 0c152.50018 0 276.12598 83.19042 276.12598 185.81104l0 0c0 102.620575 -123.62579 185.811 -276.12598 185.811l0 0c-152.50018 0 -276.12598 -83.19043 -276.12598 -185.811z" fill-rule="evenodd"/><path fill="#f4cccc" d="m165.16142 215.48294l629.6771 0l-125.935425 236.1286l-377.80627 0z" fill-rule="evenodd"/><path stroke="#000000" stroke-width="4.0" stroke-linejoin="round" stroke-linecap="butt" d="m165.16142 215.48294l629.6771 0l-125.935425 236.1286l-377.80627 0z" fill-rule="evenodd"/><path fill="#000000" d="m373.69553 165.80052l0 0c0 -6.766571 5.1963196 -12.251968 11.606323 -12.251968l0 0c3.0781555 0 6.0302734 1.2908325 8.206879 3.5885162c2.1766052 2.297699 3.399414 5.414032 3.399414 8.663452l0 0c0 6.766571 -5.1963196 12.251968 -11.606293 12.251968l0 0c-6.4100037 0 -11.606323 -5.4853973 -11.606323 -12.251968z" fill-rule="evenodd"/><path stroke="#000000" stroke-width="1.0" stroke-linejoin="round" stroke-linecap="butt" d="m373.69553 165.80052l0 0c0 -6.766571 5.1963196 -12.251968 11.606323 -12.251968l0 0c3.0781555 0 6.0302734 1.2908325 8.206879 3.5885162c2.1766052 2.297699 3.399414 5.414032 3.399414 8.663452l0 0c0 6.766571 -5.1963196 12.251968 -11.606293 12.251968l0 0c-6.4100037 0 -11.606323 -5.4853973 -11.606323 -12.251968z" fill-rule="evenodd"/><path fill="#000000" d="m563.0971 165.80052l0 0c0 -6.766571 5.19635 -12.251968 11.606323 -12.251968l0 0c3.078186 0 6.0302734 1.2908325 8.206848 3.5885162c2.1766357 2.297699 3.399414 5.414032 3.399414 8.663452l0 0c0 6.766571 -5.196289 12.251968 -11.606262 12.251968l0 0c-6.409973 0 -11.606323 -5.4853973 -11.606323 -12.251968z" fill-rule="evenodd"/><path stroke="#000000" stroke-width="1.0" stroke-linejoin="round" stroke-linecap="butt" d="m563.0971 165.80052l0 0c0 -6.766571 5.19635 -12.251968 11.606323 -12.251968l0 0c3.078186 0 6.0302734 1.2908325 8.206848 3.5885162c2.1766357 2.297699 3.399414 5.414032 3.399414 8.663452l0 0c0 6.766571 -5.196289 12.251968 -11.606262 12.251968l0 0c-6.409973 0 -11.606323 -5.4853973 -11.606323 -12.251968z" fill-rule="evenodd"/><path fill="#000000" d="m501.93964 168.1628l0 0c0 5.461975 -9.821533 9.8897705 -21.937012 9.8897705c-12.1154785 0 -21.937012 -4.4277954 -21.937012 -9.8897705l0 0c5.1786194 3.1128845 13.305969 4.9448853 21.937012 4.9448853c8.6310425 0 16.758392 -1.8320007 21.937012 -4.9448853z" fill-rule="evenodd"/><path stroke="#000000" stroke-width="1.0" stroke-linejoin="round" stroke-linecap="butt" d="m501.93964 168.1628l0 0c0 5.461975 -9.821533 9.8897705 -21.937012 9.8897705c-12.1154785 0 -21.937012 -4.4277954 -21.937012 -9.8897705l0 0c5.1786194 3.1128845 13.305969 4.9448853 21.937012 4.9448853c8.6310425 0 16.758392 -1.8320007 21.937012 -4.9448853z" fill-rule="evenodd"/><path fill="#000000" fill-opacity="0.0" d="m219.68373 243.87138l523.2126 0l0 135.74803l-523.2126 0z" fill-rule="evenodd"/><path fill="#ffffff" d="m250.41576 345.03137l0 -77.765625l20.249985 0q5.0 0 9.453125 0.78125q4.46875 0.765625 7.921875 2.921875q3.453125 2.15625 5.421875 6.140625q1.96875 3.984375 1.96875 10.515625q0 4.703125 -1.390625 7.921875q-1.390625 3.21875 -3.9375 5.140625q-2.546875 1.90625 -6.09375 2.578125q4.515625 0.578125 7.578125 2.9375q3.078125 2.34375 4.65625 6.28125q1.59375 3.9375 1.59375 9.5q0 6.0625 -1.59375 10.4375q-1.578125 4.359375 -4.5625 7.140625q-2.96875 2.78125 -7.34375 4.125q-4.359375 1.34375 -10.03125 1.34375l-23.89061 0zm17.17186 -12.0l3.65625 0q5.65625 0 7.8125 -2.875q2.171875 -2.890625 2.171875 -8.453125q0 -4.421875 -0.96875 -7.0q-0.953125 -2.59375 -3.171875 -3.796875q-2.203125 -1.203125 -5.9375 -1.203125l-3.5625 0l0 23.328125zm0 -34.65625l3.359375 0q3.9375 0 5.953125 -1.203125q2.015625 -1.203125 2.734375 -3.5q0.734375 -2.296875 0.734375 -5.5625q0 -3.078125 -1.109375 -5.140625q-1.109375 -2.0625 -3.265625 -3.109375q-2.15625 -1.0625 -5.421875 -1.0625l-2.984375 0l0 19.578125zm61.541718 47.8125q-8.734375 0 -13.828125 -3.0625q-5.078125 -3.078125 -7.296875 -8.84375q-2.203125 -5.765625 -2.203125 -13.734375l0 -28.890625q0 -8.0625 2.203125 -13.71875q2.21875 -5.671875 7.296875 -8.6875q5.09375 -3.03125 13.828125 -3.03125q8.828125 0 13.96875 3.03125q5.140625 3.015625 7.34375 8.6875q2.203125 5.65625 2.203125 13.71875l0 28.890625q0 7.96875 -2.203125 13.734375q-2.203125 5.765625 -7.34375 8.84375q-5.140625 3.0625 -13.96875 3.0625zm0 -12.203125q2.6875 0 3.9375 -1.34375q1.25 -1.34375 1.625 -3.453125q0.390625 -2.109375 0.390625 -4.3125l0 -37.4375q0 -2.3125 -0.390625 -4.375q-0.375 -2.0625 -1.625 -3.40625q-1.25 -1.34375 -3.9375 -1.34375q-2.5 0 -3.75 1.34375q-1.234375 1.34375 -1.625 3.40625q-0.390625 2.0625 -0.390625 4.375l0 37.4375q0 2.203125 0.328125 4.3125q0.34375 2.109375 1.546875 3.453125q1.203125 1.34375 3.890625 1.34375zm40.22473 11.046875l-9.40625 -77.765625l14.59375 0l4.609375 45.3125l5.84375 -45.203125l11.4375 0l6.140625 44.921875l4.703125 -45.03125l14.390625 0l-9.296875 77.765625l-14.984375 0l-6.625 -46.9375l-6.234375 46.9375l-15.171875 0zm60.677612 0l0 -77.765625l17.171875 0l0 66.15625l17.859375 0l0 11.609375l-35.03125 0zm42.23111 0l1.34375 -77.765625l18.43747 0l8.546875 45.21875l9.21875 -45.21875l17.75 0l1.34375 77.765625l-12.1875 0l-1.4375 -51.75l-9.03125 51.75l-10.84375 0l-9.59375 -52.125l-1.15625 52.125l-12.3905945 0zm64.13083 0l14.6875 -77.765625l19.578125 0l14.5 77.765625l-15.84375 0l-2.578125 -16.421875l-11.4375 0l-2.6875 16.421875l-16.21875 0zm20.453125 -26.6875l8.25 0l-4.125 -30.34375l-4.125 30.34375zm38.872864 26.6875l0 -64.984375l-11.703125 0l0 -12.78125l40.59375 0l0 12.78125l-11.609375 0l0 64.984375l-17.28125 0zm35.71997 0l0 -77.765625l34.9375 0l0 11.71875l-17.765625 0l0 19.296875l13.546875 0l0 11.90625l-13.546875 0l0 23.234375l17.953125 0l0 11.609375l-35.125 0zm63.552612 1.15625q-7.296875 0 -12.203125 -2.59375q-4.890625 -2.59375 -7.390625 -8.015625q-2.5 -5.421875 -2.78125 -14.0625l14.6875 -2.21875q0.09375 5.0 0.90625 8.078125q0.828125 3.0625 2.3125 4.40625q1.484375 1.34375 3.59375 1.34375q2.6875 0 3.5 -1.8125q0.828125 -1.828125 0.828125 -3.84375q0 -4.8125 -2.3125 -8.109375q-2.296875 -3.3125 -6.234375 -6.6875l-6.71875 -5.84375q-4.421875 -3.75 -7.453125 -8.5q-3.015625 -4.75 -3.015625 -11.765625q0 -9.890625 5.859375 -15.109375q5.859375 -5.234375 15.9375 -5.234375q6.234375 0 10.03125 2.109375q3.796875 2.109375 5.765625 5.515625q1.96875 3.40625 2.6875 7.203125q0.71875 3.796875 0.8125 7.25l-14.78125 1.828125q-0.09375 -3.46875 -0.4375 -6.0q-0.34375 -2.546875 -1.40625 -3.9375q-1.046875 -1.390625 -3.25 -1.390625q-2.40625 0 -3.515625 2.015625q-1.09375 2.015625 -1.09375 4.03125q0 4.3125 2.0625 7.046875q2.0625 2.734375 5.421875 5.71875l6.4375 5.65625q5.09375 4.328125 8.59375 9.796875q3.5 5.46875 3.5 13.53125q0 5.484375 -2.5 9.953125q-2.484375 4.453125 -7.046875 7.046875q-4.5625 2.59375 -10.796875 2.59375z" fill-rule="nonzero"/></g></svg>